<?xml version="1.0" encoding="UTF-8"?>
<svg width="301px" height="48px" viewBox="0 0 301 48" version="1.1" xmlns="http://www.w3.org/2000/svg" xmlns:xlink="http://www.w3.org/1999/xlink">
    <title>logo</title>
    <g id="Page-1" stroke="none" stroke-width="1" fill="none" fill-rule="evenodd">
        <g id="appliedscience_bg_002" transform="translate(-1073, -386)" fill="#000000">
            <g id="logo" transform="translate(1073, 386)">
                <path d="M72.1103886,17.3704567 C71.0574598,15.5279111 68.6881644,14.3626389 66.2060845,14.3626389 C60.789964,14.324784 56.5403798,17.670827 56.5403798,24.0617199 C56.5403798,30.5661775 60.6022644,33.9492525 66.0933001,33.9113976 C68.1621116,33.8743657 71.0574598,32.8218351 72.1103886,30.6410643 L72.3367806,33.3476889 L76.66128,33.3476889 L76.66128,14.8136058 L72.2610422,14.8136058 L72.1103886,17.3704567 Z M66.6193529,18.4600192 C73.8400237,18.4600192 73.8400237,29.7012755 66.6193529,29.7012755 C63.573351,29.7012755 61.1291404,27.5953916 61.1291404,24.0617199 C61.1291404,20.5280483 63.573351,18.4600192 66.6193529,18.4600192 Z M89.5038822,29.3622274 C86.382142,29.3622274 84.2384153,26.993828 84.2384153,24.0995748 C84.2384153,21.2053216 86.1936192,18.8360993 89.5038822,18.8360993 C92.8133221,18.8360993 94.7685259,21.2053216 94.7685259,24.0995748 C94.7685259,26.993828 92.6247992,29.3622274 89.5038822,29.3622274 Z M83.8243237,41.0923056 L83.8243237,31.1669181 C85.1406904,33.1970923 88.0368619,33.7986559 89.9920658,33.7986559 C95.9350623,33.7986559 99.3572865,29.512824 99.3572865,24.0995748 C99.3572865,18.6476478 95.5588399,14.4004938 89.8422354,14.4004938 C87.7355547,14.4004938 85.2534748,15.3024277 83.8243237,17.3704567 L83.5238397,14.8136058 L79.2363864,14.8136058 L79.2363864,41.0923056 L83.8243237,41.0923056 Z M111.710882,29.3622274 C108.588319,29.3622274 106.445415,26.993828 106.445415,24.0995748 C106.445415,21.2053216 108.400619,18.8360993 111.710882,18.8360993 C115.019499,18.8360993 116.975526,21.2053216 116.975526,24.0995748 C116.975526,26.993828 114.831799,29.3622274 111.710882,29.3622274 Z M106.031323,41.0923056 L106.031323,31.1669181 C107.34769,33.1970923 110.243862,33.7986559 112.199066,33.7986559 C118.141239,33.7986559 121.564286,29.512824 121.564286,24.0995748 C121.564286,18.6476478 117.765016,14.4004938 112.049235,14.4004938 C109.942554,14.4004938 107.460475,15.3024277 106.031323,17.3704567 L105.73084,14.8136058 L101.443386,14.8136058 L101.443386,41.0923056 L106.031323,41.0923056 Z M123.650386,33.3476889 L128.200454,33.3476889 L128.200454,7.06898916 L123.650386,7.06898916 L123.650386,33.3476889 Z M130.926214,33.3476889 L135.514151,33.3476889 L135.514151,14.738719 L130.926214,14.738719 L130.926214,33.3476889 Z M130.512122,9.58798519 C130.512122,13.1595117 135.92742,13.1595117 135.92742,9.58798519 C135.92742,6.01645865 130.512122,6.01645865 130.512122,9.58798519 Z M156.743138,25.715814 C157.457713,18.0839391 153.584351,14.2498971 147.37874,14.2498971 C141.360828,14.2498971 137.525336,18.3094226 137.525336,23.9489782 C137.525336,29.8889041 141.323782,33.8365108 147.717093,33.8365108 C150.53835,33.8365108 153.734182,32.8588671 155.690209,30.8286929 L152.756991,27.9344397 C151.703239,29.0240022 149.484598,29.6634207 147.792008,29.6634207 C144.558307,29.6634207 142.564411,28.0093266 142.263927,25.715814 L156.743138,25.715814 Z M142.338842,21.918804 C143.015548,19.5133727 145.046491,18.3094226 147.528571,18.3094226 C150.161304,18.3094226 152.042416,19.5133727 152.3429,21.918804 L142.338842,21.918804 Z M167.968066,18.6476478 C170.864237,18.6476478 173.346317,20.8284186 173.346317,24.0617199 C173.346317,27.407763 170.864237,29.512824 167.968066,29.512824 C165.034849,29.512824 162.703422,27.2950213 162.703422,24.0617199 C162.703422,20.7156769 165.034849,18.6476478 167.968066,18.6476478 Z M173.647625,7.06898916 L173.647625,17.3326018 C172.556827,15.4151694 169.510002,14.3626389 167.554798,14.3626389 C162.138677,14.3626389 158.114662,17.670827 158.114662,24.0617199 C158.114662,30.1522425 162.214416,33.760801 167.667582,33.760801 C169.924093,33.760801 172.21765,33.0094637 173.647625,30.791661 L173.948108,33.3476889 L178.235562,33.3476889 L178.235562,7.06898916 L173.647625,7.06898916 Z M194.199081,18.8739542 L195.966585,16.84378 C194.136515,15.1896859 191.779568,14.3626389 188.896568,14.3626389 C187.617247,14.337128 186.4326,14.5000686 185.341802,14.8514607 C184.251827,15.2020299 183.317445,15.8035935 182.540303,16.6553285 C181.763161,17.5078864 181.37459,18.560417 181.37459,19.813743 C181.37459,20.7658757 181.581224,21.5739953 181.995316,22.2389247 C182.408584,22.9030311 183.004613,23.4223015 183.781755,23.7992045 C184.558897,24.1744617 185.32369,24.462488 186.075312,24.6632835 C186.827757,24.8632561 187.730032,25.0270196 188.783784,25.1521053 C190.412983,25.3529008 191.660197,25.6664381 192.525427,26.0918941 C193.390656,26.5181731 193.81051,27.1946235 193.785813,28.1220683 C193.760292,29.1499108 193.277871,29.8889041 192.337727,30.340694 C191.396759,30.791661 190.312547,31.0171444 189.084268,31.0171444 C186.225966,31.0171444 184.019672,30.0650117 182.465388,28.1599232 L180.697884,30.3028391 C182.553475,32.6333836 185.32369,33.7986559 189.009353,33.7986559 C191.215646,33.7986559 193.058065,33.3164175 194.537434,32.3511178 C196.016803,31.3866411 196.769248,30.0148128 196.793945,28.23481 C196.819466,27.3575641 196.656464,26.5872994 196.304939,25.92237 C195.954237,25.2582636 195.546731,24.7381703 195.083245,24.3629132 C194.618935,23.9868331 193.985861,23.6667124 193.184022,23.404197 C192.381359,23.1408586 191.698067,22.9589905 191.134145,22.8585928 C190.570223,22.758195 189.849061,22.6586202 188.971483,22.5582225 C185.91231,22.2068303 184.371197,21.2925525 184.345677,19.813743 C184.320156,18.9364971 184.740011,18.2600466 185.60524,17.7835688 C186.470469,17.3070909 187.580202,17.0816075 188.933614,17.1071184 C191.090513,17.1071184 192.832497,17.7086819 194.161212,18.9118091 L194.199081,18.8739542 Z M214.855913,30.8665478 L212.787101,28.7985187 C211.507781,30.1020436 209.891753,30.7538061 207.935726,30.7538061 C206.055437,30.7538061 204.482219,30.158003 203.215247,28.9680428 C201.949098,27.7772596 201.316846,26.142093 201.316846,24.0617199 C201.316846,22.0315457 201.949098,20.4087231 203.215247,19.193252 C204.482219,17.9777808 206.067786,17.3704567 207.972772,17.3704567 C209.828363,17.3704567 211.394996,17.9967083 212.674317,19.2500343 L214.630344,17.2198601 C212.749232,15.3649705 210.505893,14.4375257 207.897857,14.4375257 C205.089773,14.4375257 202.770695,15.2900837 200.939801,16.9943766 C199.10973,18.6978467 198.194283,21.0539021 198.194283,24.0617199 C198.194283,27.0440269 199.122079,29.3943218 200.97767,31.1109587 C202.833261,32.8275957 205.13999,33.6859141 207.897857,33.6859141 C210.605506,33.6859141 212.912235,32.7337814 214.818044,30.8286929 L214.855913,30.8665478 Z M216.669519,9.09916335 C216.669519,9.9517213 217.007872,10.5532849 217.685402,10.9038541 C218.362108,11.2544233 219.038814,11.2610067 219.716344,10.9219586 C220.39305,10.5837334 220.731404,9.98875326 220.731404,9.13701824 C220.731404,8.28446029 220.39305,7.68371965 219.716344,7.33232753 C219.038814,6.9809354 218.362108,6.97517487 217.685402,7.31340008 C217.007872,7.65162529 216.669519,8.24742834 216.669519,9.09916335 Z M217.12148,33.3476889 L220.205351,33.3476889 L220.205351,14.7008641 L217.12148,14.7008641 L217.12148,33.3476889 Z M240.862183,30.377726 L238.793371,28.4981484 C238.19158,29.2247977 237.332113,29.7950898 236.216618,30.2082019 C235.101123,30.6221369 233.99139,30.8286929 232.888244,30.8286929 C231.08287,30.8286929 229.554107,30.3209436 228.300306,29.306268 C227.046506,28.2907694 226.331931,26.9436291 226.15658,25.2648471 L241.952157,25.2648471 C242.302859,21.7311754 241.59487,19.0303113 239.827365,17.1630778 C238.059861,15.2958442 235.670808,14.3626389 232.662675,14.3626389 C229.854591,14.3626389 227.547862,15.2645728 225.742488,17.0692635 C223.937115,18.8739542 223.034839,21.1798107 223.034839,23.9868331 C223.034839,26.9189412 223.937115,29.269236 225.742488,31.0360719 C227.547862,32.8029077 229.904808,33.6859141 232.813329,33.6859141 C234.342915,33.6859141 235.834633,33.4044713 237.288482,32.8399397 C238.743153,32.276231 239.921215,31.4557674 240.824313,30.377726 L240.862183,30.377726 Z M239.01894,22.6709642 L226.15658,22.6709642 C226.406846,20.9419833 227.146942,19.5882595 228.375222,18.6106158 C229.604325,17.6329722 231.058173,17.1449733 232.73759,17.1449733 C234.593182,17.1449733 236.084899,17.6263887 237.213566,18.5916884 C238.34141,19.5569881 238.943201,20.9288163 239.01894,22.7079962 L239.01894,22.6709642 Z M244.593946,14.7765739 L244.593946,33.3476889 L247.639948,33.3476889 L247.639948,23.3852695 C247.639948,21.6809765 248.17341,20.2523659 249.238688,19.0994377 C250.303965,17.9465094 251.677136,17.3572898 253.356553,17.3326018 C255.111708,17.3326018 256.490642,17.8461116 257.494176,18.8739542 C258.496887,19.9009738 258.998242,21.3172404 258.998242,23.1219311 L258.998242,33.3476889 L262.082113,33.3476889 L262.082113,23.0840763 C262.082113,20.4276505 261.323906,18.329173 259.806667,16.7869977 C258.290252,15.2456453 256.327639,14.4753806 253.920475,14.4753806 C251.263044,14.4753806 249.144838,15.5525991 247.565033,17.7086819 L247.41438,14.738719 L244.593946,14.738719 L244.593946,14.7765739 Z M281.309794,30.8665478 L279.240982,28.7985187 C277.962485,30.1020436 276.344811,30.7538061 274.389607,30.7538061 C272.509318,30.7538061 270.935276,30.158003 269.669127,28.9680428 C268.403802,27.7772596 267.770727,26.142093 267.770727,24.0617199 C267.770727,22.0315457 268.403802,20.4087231 269.669127,19.193252 C270.935276,17.9777808 272.521667,17.3704567 274.427476,17.3704567 C276.282244,17.3704567 277.848877,17.9967083 279.128198,19.2500343 L281.084225,17.2198601 C279.203113,15.3649705 276.959774,14.4375257 274.351738,14.4375257 C271.543653,14.4375257 269.224576,15.2900837 267.394505,16.9943766 C265.563611,18.6978467 264.648164,21.0539021 264.648164,24.0617199 C264.648164,27.0440269 265.576783,29.3943218 267.432374,31.1109587 C269.287142,32.8275957 271.593871,33.6859141 274.351738,33.6859141 C277.059386,33.6859141 279.366115,32.7337814 281.271925,30.8286929 L281.309794,30.8665478 Z M299.822076,30.377726 L297.754087,28.4981484 C297.151473,29.2247977 296.293653,29.7950898 295.177335,30.2082019 C294.061839,30.6221369 292.95293,30.8286929 291.84896,30.8286929 C290.043587,30.8286929 288.514823,30.3209436 287.261023,29.306268 C286.007223,28.2907694 285.292647,26.9436291 285.117296,25.2648471 L300.912874,25.2648471 C301.263576,21.7311754 300.555586,19.0303113 298.788082,17.1630778 C297.020577,15.2958442 294.632347,14.3626389 291.623391,14.3626389 C288.815307,14.3626389 286.508578,15.2645728 284.703205,17.0692635 C282.897831,18.8739542 281.995556,21.1798107 281.995556,23.9868331 C281.995556,26.9189412 282.897831,29.269236 284.703205,31.0360719 C286.508578,32.8029077 288.865525,33.6859141 291.774045,33.6859141 C293.303632,33.6859141 294.794526,33.4044713 296.249198,32.8399397 C297.70387,32.276231 298.881931,31.4557674 299.784207,30.377726 L299.822076,30.377726 Z M297.979656,22.6709642 L285.117296,22.6709642 C285.367562,20.9419833 286.107658,19.5882595 287.335938,18.6106158 C288.564218,17.6329722 290.018889,17.1449733 291.698307,17.1449733 C293.553898,17.1449733 295.045616,17.6263887 296.174283,18.5916884 C297.30295,19.5569881 297.903918,20.9288163 297.979656,22.7079962 L297.979656,22.6709642 L297.979656,22.6709642 Z" id="Fill-1"></path>
                <path d="M24.0090803,0 C27.1893368,0 30.2445477,0.993244464 32.7862719,2.81996874 C35.874799,3.32532262 38.7372646,4.78224412 40.9860127,7.02948841 C43.2347156,9.27734094 44.6923098,12.1386544 45.1977815,15.2264839 C47.0245404,17.7674096 48.0181606,20.8209463 48.0181606,24 C48.0181606,27.1790537 47.0245404,30.2331091 45.1975369,32.773872 C44.6923098,35.8621336 43.2347156,38.7233123 40.9860127,40.9705116 C38.7372646,43.2184091 35.874799,44.6754653 32.7857302,45.1807179 C30.2445477,47.0067555 27.1893368,48 24.0090803,48 C20.8288238,48 17.7741318,47.0067555 15.2322096,45.180443 C12.143247,44.675407 9.28085099,43.2183641 7.03214799,40.9705116 C4.783445,38.7233123 3.32585088,35.8621336 2.82037911,32.7739202 C0.993620255,30.2331091 0,27.1790537 0,24 C0,20.8209463 0.993620255,17.7674096 2.82062374,15.2264487 C3.32585088,12.1386544 4.783445,9.27734094 7.03214799,7.02948841 C9.28085099,4.78228914 12.143247,3.32538098 15.2322448,2.82012815 C17.7741318,0.993244464 20.8288238,0 24.0090803,0 Z M24.007784,43.9871804 L23.8007092,44.0824149 C22.2234079,44.7842732 20.5267862,45.2124578 18.7776045,45.3392271 C20.4143803,46.0301328 22.188725,46.3944589 24.0090803,46.3944589 C25.8294357,46.3944589 27.6035673,46.0301328 29.2406752,45.3391732 C27.4136056,45.2068216 25.6439927,44.7456031 24.007784,43.9871804 Z M36.1656562,38.7087914 L36.1102266,38.7203411 C35.0849942,38.9384867 34.0309203,39.0506103 32.9626792,39.0506103 C32.0054242,39.0506103 31.0594984,38.9605748 30.1354949,38.7848944 C29.6065296,39.5625366 29.0013884,40.2947261 28.324524,40.9713345 C27.5555046,41.7398397 26.7146514,42.4159181 25.817496,42.993116 C27.2523678,43.5057079 28.7790351,43.7734193 30.3398247,43.7734193 C30.949833,43.7734193 31.5546292,43.7325262 32.1507987,43.6521534 C32.6300796,43.2872973 33.0872773,42.8883384 33.519192,42.4567275 C34.6225709,41.353407 35.5126409,40.085042 36.1656562,38.7087914 Z M11.8537548,38.7087086 L11.9541529,38.9186388 C12.5967647,40.2142495 13.4518026,41.4099575 14.4989687,42.4567275 C14.9304399,42.8880355 15.3872065,43.2867374 15.8658371,43.6514138 C16.462183,43.731636 17.0676476,43.7725964 17.678336,43.7725964 C19.2391255,43.7725964 20.7657928,43.5050414 22.2011437,42.9934691 C21.3029769,42.4154901 20.4624127,41.7395964 19.6936367,40.9713345 C19.0169689,40.2947261 18.4119304,39.5624896 17.8829236,38.7852003 C16.9595299,38.9605207 16.0132207,39.0506103 15.0554814,39.0506103 C13.9684137,39.0506103 12.8960168,38.9344998 11.8537548,38.7087086 Z M42.8033457,35.3905687 L42.7303673,35.4537037 C41.3625091,36.6209523 39.8109601,37.5242284 38.1475909,38.1336483 C37.5276198,39.8253747 36.6026829,41.4018107 35.4047785,42.7867396 C37.0504509,42.118834 38.5626641,41.1220689 39.8499363,39.8348649 C41.1374054,38.5483013 42.13445,37.0366001 42.8033457,35.3905687 Z M5.21523283,35.3913883 L5.31989891,35.6414892 C5.98634457,37.1902831 6.94653065,38.6140305 8.16822435,39.8348649 C9.45549657,41.1220689 10.9677097,42.118621 12.6140637,42.7871536 C11.4154777,41.4018107 10.4905409,39.8253747 9.87008463,38.1331633 C8.17771812,37.5134267 6.60068571,36.5888397 5.21523283,35.3913883 Z M19.7180047,38.3143689 L19.5563272,38.3652286 C19.9421399,38.8813749 20.3671849,39.3726621 20.829713,39.8348649 C21.7791875,40.784289 22.8510374,41.5757046 24.0088271,42.1940301 C25.1671976,41.5755339 26.2390061,40.7842561 27.1884476,39.8348649 C27.6509757,39.3726621 28.0760207,38.8813749 28.4618334,38.3652336 C26.9118647,37.881164 25.4490763,37.1477962 24.1269161,36.188017 L24.0091099,36.1016326 C22.7015536,37.070375 21.2531006,37.8154733 19.7180047,38.3143689 Z M10.7000645,31.0117637 L10.6838947,31.1192908 C10.6016193,31.7219493 10.5597474,32.333439 10.5597474,32.9502126 C10.5597474,34.292184 10.7579719,35.6091407 11.1392967,36.8645459 C12.3956632,37.2469197 13.7130023,37.4450693 15.0554814,37.4450693 C15.7098986,37.4450693 16.3583171,37.3980054 16.9965211,37.3056277 C16.242936,35.8680107 15.7271234,34.3150995 15.4710417,32.7013776 L15.4501277,32.557992 C13.7838579,32.3104173 12.1804548,31.7866716 10.7000645,31.0117637 Z M37.3189189,31.0102085 L37.1690859,31.0888844 C35.7306938,31.8213415 34.1792211,32.3185152 32.5691022,32.5578436 C32.3218462,34.2225324 31.7980598,35.8253718 31.0229985,37.3051884 C31.6603178,37.3980123 32.3085013,37.4450693 32.9626792,37.4450693 C34.3052013,37.4450693 35.6225817,37.246907 36.8783533,36.8657026 C37.260176,35.6091091 37.4584132,34.2922269 37.4584132,32.9502126 C37.4584132,32.2961933 37.4113316,31.6481155 37.3189189,31.0102085 Z M20.395,32.722 L17.1036769,32.7226262 C17.372543,34.21665 17.8916848,35.648235 18.6380735,36.9617492 C20.0954555,36.5608908 21.475282,35.9154429 22.7222143,35.0489307 L20.395,32.722 Z M27.622,32.722 L25.2959463,35.0482151 C26.5426167,35.9146697 27.9221255,36.5602367 29.379023,36.9617656 C30.1264759,35.6483095 30.6456177,34.2168185 30.9144837,32.7230072 L27.622,32.722 Z M43.0098268,25.8082511 L42.9781766,25.855426 C42.4074948,26.7343373 41.7414211,27.5586888 40.9860127,28.3138115 C40.3090562,28.9907087 39.5763563,29.5958955 38.7985166,30.1249769 C38.9753264,31.047867 39.065385,31.993378 39.065385,32.9502126 C39.065385,34.0375663 38.9490814,35.1102358 38.7229191,36.1527331 C40.0993306,35.5004645 41.368321,34.610567 42.4719676,33.5073378 C42.9038822,33.0755865 43.3031086,32.6185617 43.668228,32.1396845 C43.7482059,31.5435886 43.7891576,30.9385891 43.7891576,30.32835 C43.7891576,28.7685126 43.5214691,27.2427687 43.0098268,25.8082511 Z M5.00977768,25.8087158 L4.93225096,26.0279226 C4.4701851,27.3982724 4.22900307,28.8480933 4.22900307,30.32835 C4.22900307,30.9388075 4.27000288,31.544067 4.35057981,32.1406918 C4.71564357,32.6186727 5.1145984,33.0752238 5.54619305,33.5065149 C6.64983966,34.610103 7.91883004,35.5002028 9.29587356,36.1531287 C9.06907921,35.1102358 8.95277563,34.0375663 8.95277563,32.9502126 C8.95277563,31.9930322 9.04289933,31.0471836 9.21875051,30.1232653 C8.4414789,29.5953793 7.70901245,28.99042 7.03214799,28.3138115 C6.263372,27.5453263 5.58712042,26.7051405 5.00977768,25.8087158 Z M25.35,32.722 L22.668,32.722 L23.4525676,33.5065149 C23.6337109,33.6875897 23.8193085,33.8629218 24.0091073,34.0324054 C24.1994509,33.8631748 24.3847419,33.6881206 24.5655931,33.5073378 L25.35,32.722 Z M26.956,16.884 L21.06,16.884 L17.25,20.692 L16.89,21.052 L16.89,26.946 L21.06,31.115 L26.958,31.115 L31.127,26.947 L31.127,24.399 L31.126,21.052 L26.956,16.884 Z M31.127,29.219 L29.23,31.115 L30.3398247,31.1158963 C30.5961012,31.1158963 30.8514578,31.1086787 31.1056413,31.0943485 C31.1204661,30.8398828 31.1276689,30.5849823 31.1276689,30.329173 L31.127,29.219 Z M16.89,29.219 L16.8904917,30.32835 C16.8904917,30.5845297 16.8977121,30.8397939 16.9120477,31.0938887 C17.1667028,31.1086787 17.4220594,31.1158963 17.678336,31.1158963 L18.787,31.115 L16.89,29.219 Z M11.0504633,29.3413556 L11.0437991,29.3695468 C12.3578222,30.1155133 13.7897897,30.6343276 15.2842525,30.9029717 L15.284,27.613 L13.3628923,25.6927719 L12.9564009,25.2870404 C12.0952816,26.5255154 11.452438,27.8951471 11.0504633,29.3413556 Z M35.0617598,25.2870404 L34.6552683,25.6927719 L32.733,27.613 L32.733,30.901 L32.8907785,30.8738103 C34.3285816,30.597689 35.7063833,30.0893738 36.9743616,29.3695468 C36.5739842,27.9127737 35.9284184,26.5334823 35.0617598,25.2870404 Z M45.3553767,18.7684994 L45.3489311,18.8664408 C45.2072782,20.6587947 44.7489708,22.3942628 44.0036828,24.000982 C44.7625889,25.6356104 45.2238478,27.4048983 45.3563381,29.231493 C46.0472882,27.5950167 46.4120121,25.8207344 46.4120121,24 C46.4120121,22.1795945 46.0472522,20.4054326 45.3553767,18.7684994 Z M2.66182256,18.7686939 L2.55883498,19.0215449 C1.93442407,20.5876859 1.60614853,22.2730338 1.60614853,24 C1.60614853,25.8203639 1.97072405,27.5942945 2.6622592,29.2309843 C2.79448083,27.404254 3.25570992,25.6353125 4.01428644,23.9997036 C3.25564934,22.3650718 2.79432397,20.5956919 2.66182256,18.7686939 Z M38.3794425,19.5493047 L38.3288651,19.7106592 C37.8297005,21.2455025 37.084161,22.6939316 36.1148246,24.001341 C37.1181251,25.3526829 37.8813878,26.8562068 38.3800733,28.4503266 C38.8958396,28.0654023 39.3874082,27.640518 39.8499363,27.1781649 C40.7993778,26.2290824 41.5908779,25.1576792 42.2093074,24.0003734 C41.5913369,22.8429421 40.7996531,21.7711928 39.8499363,20.8218351 C39.3874082,20.3596324 38.8958396,19.9348711 38.3794425,19.5493047 Z M9.63839988,19.5512696 L9.55117391,19.6152258 C9.06670532,19.9831291 8.60454353,20.3858229 8.16822435,20.8218351 C7.21874991,21.7709505 6.42722787,22.8425108 5.808789,23.9999641 C6.42728272,25.1576792 7.2187828,26.2290824 8.16822435,27.1781649 C8.63075246,27.640518 9.12232107,28.0654023 9.63871816,28.451069 C10.1368962,26.8558127 10.9004129,25.3519395 11.9036129,23.9990379 C10.9001057,22.6477178 10.1370462,21.144759 9.63839988,19.5512696 Z M32.733,22.659 L32.733,25.342 L33.556,24.518 L33.7769691,24.2922789 C33.8679652,24.1962136 33.9574035,24.0989862 34.0452694,24.0006319 C33.8881039,23.8241499 33.7258359,23.6518008 33.5586164,23.4832691 L32.733,22.659 Z M15.284,22.658 L14.534,23.407 L14.4989687,23.4436977 C14.3178014,23.6247965 14.1423847,23.8103532 13.9728239,24.000114 C14.1205487,24.1659149 14.2726467,24.3280155 14.4291159,24.4867668 L15.284,25.341 L15.284,22.658 Z M11.0679643,18.6173593 L11.0427577,18.6314377 C11.4442604,20.0880105 12.0899525,21.4673562 12.9567926,22.7140114 L14.089,21.581 L15.284,20.387 L15.2842525,17.0978417 C13.7989458,17.3648218 12.375371,17.8788818 11.0679643,18.6173593 Z M32.7339081,17.0978417 L32.733,20.387 L34.164,21.817 L35.06,22.713 L35.1515727,22.5826272 C35.9731075,21.3707073 36.5879529,20.0370303 36.975403,18.6314377 C35.6603385,17.885229 34.228371,17.3664676 32.7339081,17.0978417 Z M38.7222871,11.8476943 L38.7349908,11.9041246 C38.953219,12.9290395 39.065385,13.9827733 39.065385,15.0506103 C39.065385,16.0073066 38.9753154,16.952772 38.7995685,17.8763837 C39.5763563,18.4044509 40.3090562,19.009488 40.9860127,19.6861885 C41.7547886,20.4546737 42.4310402,21.2949201 43.008383,22.1914167 C43.5214691,20.7572313 43.7891576,19.2314874 43.7891576,17.67165 C43.7891576,17.0618723 43.748249,16.4573049 43.6678499,15.8613609 C43.3031086,15.3828273 42.9038822,14.9259189 42.4719676,14.4943081 C41.368321,13.39072 40.0993306,12.5006201 38.7222871,11.8476943 Z M9.29524157,11.8479572 L9.08531413,11.9496318 C7.78937855,12.5920005 6.59335908,13.4467151 5.54619305,14.4934851 C5.1145815,14.9249334 4.71561233,15.3816198 4.35070138,15.8601262 C4.26995724,16.4566309 4.22900307,17.0615324 4.22900307,17.67165 C4.22900307,19.2314874 4.49669159,20.7572313 5.00833387,22.1917489 C5.58712042,21.2949201 6.263372,20.4546737 7.03214799,19.6861885 C7.70881574,19.0097766 8.44122649,18.404967 9.2187563,17.8761602 C9.04284521,16.9530243 8.95277563,16.0075033 8.95277563,15.0506103 C8.95277563,13.9632567 9.06907921,12.8905265 9.29524157,11.8479572 Z M18.788,16.884 L17.678336,16.8849266 C17.4220594,16.8849266 17.1667028,16.8921443 16.9125194,16.9064742 C16.8977121,17.1602103 16.8904917,17.4154703 16.8904917,17.67165 L16.89,18.781 L17.229,18.443 L18.788,16.884 Z M30.3398247,16.8849266 L29.229,16.884 L31.126,18.78 L31.1268457,17.67165 C31.1268457,17.4154703 31.1196295,17.1602103 31.1053017,16.906123 C30.8507876,16.8921253 30.5957649,16.8849266 30.3398247,16.8849266 Z M15.0554814,10.5557537 C13.7130023,10.5557537 12.3956632,10.7539032 11.1399278,11.1350838 C10.758077,12.3907145 10.5597474,13.7079746 10.5597474,15.0506103 C10.5597474,15.7043904 10.6067946,16.3522059 10.6991403,16.9898472 C12.1801734,16.2142478 13.7834825,15.6905971 15.4493643,15.4429739 C15.6961589,13.7786448 16.219902,12.1758481 16.9949367,10.6960177 C16.3583171,10.6028175 15.7098986,10.5557537 15.0554814,10.5557537 Z M32.9626792,10.5557537 C32.3085013,10.5557537 31.6603178,10.6027831 31.0223398,10.6950939 C31.7982586,12.1758625 32.3220017,13.77891 32.569563,15.4445195 C34.2352702,15.6906211 35.838638,16.2143494 37.3188861,16.9890938 C37.411366,16.3522059 37.4584132,15.7043904 37.4584132,15.0506103 C37.4584132,13.7079746 37.2600837,12.3905987 36.8785609,11.1349178 C35.6225817,10.7539159 34.3052013,10.5557537 32.9626792,10.5557537 Z M29.3804355,11.0396223 L29.3520913,11.046284 C27.9051242,11.4481675 26.5349324,12.090902 25.2959463,12.9518923 L25.7016694,13.3578384 L27.623,15.278 L30.9139478,15.278472 C30.6453265,13.7845743 30.1265243,12.3531484 29.3804355,11.0396223 Z M24.008978,13.9681979 L23.9883287,13.9861987 C23.8150585,14.1415573 23.6453087,14.3018058 23.4792728,14.4668637 L22.667,15.278 L25.349,15.278 L24.5655931,14.4943081 C24.3844258,14.3131503 24.1988031,14.1377454 24.008978,13.9681979 Z M18.6372245,11.0383402 L18.6238114,11.0637784 C17.8849029,12.3706906 17.3705961,13.793727 17.1034969,15.278472 L20.394,15.278 L22.3164912,13.3578384 L22.337,13.336 L22.7222143,12.9522734 C21.4749982,12.0853513 20.0948274,11.4397128 18.6372245,11.0383402 Z M35.4040969,5.21314951 L35.4671175,5.2864164 C36.6348077,6.65352256 37.5384256,8.20453689 38.148076,9.8673867 C39.8404425,10.4865733 41.4174749,11.4111603 42.8029278,12.6086117 C42.134145,10.9635617 41.1372085,9.45192046 39.8499363,8.1651351 C38.5626641,6.87834973 37.0504509,5.88179029 35.4040969,5.21314951 Z M12.6142515,5.21289136 L12.3635056,5.31788691 C10.8142178,5.98408051 9.38991806,6.94390344 8.16822435,8.1651351 C6.88095213,9.45192046 5.88401565,10.9635617 5.21512189,12.609293 C6.60068571,11.4111603 8.17771812,10.4865733 9.87056974,9.86635173 C10.4906909,8.17465428 11.4159252,6.597813 12.6142515,5.21289136 Z M24.0094538,5.80665635 L23.729453,5.96006772 C22.6783602,6.55389025 21.7023514,7.29282677 20.829713,8.1651351 C20.3671849,8.62748828 19.9421399,9.11887098 19.5563272,9.63507277 C21.1524213,10.1332579 22.6561683,10.8961225 24.0090392,11.8983674 C25.3612487,10.8964997 26.8653452,10.1333811 28.4600914,9.6347546 C28.0759932,9.11887098 27.6509757,8.62748828 27.1884476,8.1651351 C26.2390061,7.21605263 25.1671976,6.4248519 24.0094538,5.80665635 Z M30.3398247,4.22740365 C28.7790351,4.22740365 27.2523678,4.49511508 25.8170169,5.00679565 C26.7146514,5.58457928 27.5555046,6.26075984 28.324524,7.02948841 C29.0013884,7.70590024 29.6065296,8.43803399 30.1355789,9.21526973 C31.0594984,9.03942517 32.0054242,8.94938966 32.9626792,8.94938966 C34.0500956,8.94938966 35.1228317,9.06557474 36.1654086,9.29150873 C35.5126409,7.91521979 34.6225709,6.64705709 33.519192,5.54409546 C33.0877208,5.11264715 32.6309541,4.71385279 32.1523235,4.34911954 C31.5559777,4.26838795 30.9505131,4.22740365 30.3398247,4.22740365 Z M17.678336,4.22740365 C17.0679876,4.22740365 16.4628572,4.26834233 15.8663651,4.3487999 C15.3874394,4.71385279 14.9305802,5.11264715 14.4989687,5.54409546 C13.3958574,6.64714823 12.5059516,7.91500919 11.8529797,9.29076532 C12.8960168,9.06550025 13.9684137,8.94938966 15.0554814,8.94938966 C16.012678,8.94938966 16.9585468,9.03941419 17.8824966,9.21507347 C18.411631,8.4382863 19.0167722,7.70609687 19.6936367,7.02948841 C20.4626971,6.26071886 21.3035989,5.58450719 22.2008082,5.00725893 C20.7665009,4.49523926 19.2394875,4.22740365 17.678336,4.22740365 Z M24.0090803,1.60636401 C22.188725,1.60636401 20.4145933,1.97047724 18.7774855,2.6613359 C20.604555,2.79392227 22.374168,3.2549539 24.0103766,4.01330512 C25.6447135,3.25476611 27.4139777,2.79389531 29.2405562,2.66157686 C27.6037804,1.97047724 25.8294357,1.60636401 24.0090803,1.60636401 Z" id="Combined-Shape"></path>
            </g>
        </g>
    </g>
</svg>